<svg xmlns="http://www.w3.org/2000/svg" xmlns:xlink="http://www.w3.org/1999/xlink" version="1.1" x="0px" y="0px" viewBox="0 0 200 250" enable-background="new 0 0 200 200" xml:space="preserve"><g><g><path fill="#eab308" d="M100,200C44.859,200,0,155.14,0,100.001C0,44.86,44.859,0,100,0c55.141,0,100,44.86,100,100.001    C200,155.14,155.141,200,100,200z M100,7.229c-51.155,0-92.771,41.618-92.771,92.772c0,51.153,41.616,92.771,92.771,92.771    c51.154,0,92.771-41.617,92.771-92.771C192.771,48.846,151.154,7.229,100,7.229z"/><g><path fill="#eab308" d="M23.293,100.001h-7.229c0-46.284,37.653-83.938,83.936-83.938v7.229     C57.704,23.292,23.293,57.704,23.293,100.001z"/><path fill="#eab308" d="M100,183.936v-7.229c42.296,0,76.707-34.409,76.707-76.706h7.229     C183.936,146.282,146.282,183.936,100,183.936z"/><path fill="#eab308" d="M39.357,100.001h-7.229c0-37.425,30.447-67.873,67.872-67.873v7.229     C66.562,39.357,39.357,66.561,39.357,100.001z"/><path fill="#eab308" d="M100,167.872v-7.229c33.438,0,60.643-27.202,60.643-60.642h7.229     C167.871,137.425,137.425,167.872,100,167.872z"/><path fill="#eab308" d="M55.422,100.001h-7.229c0-28.567,23.241-51.809,51.807-51.809v7.229     C75.419,55.421,55.422,75.42,55.422,100.001z"/><path fill="#eab308" d="M100,151.808v-7.229c24.581,0,44.578-19.998,44.578-44.577h7.229     C151.808,128.567,128.565,151.808,100,151.808z"/></g><path fill="#eab308" d="M100,135.743c-19.708,0-35.743-16.033-35.743-35.742c0-19.71,16.035-35.745,35.743-35.745    c19.709,0,35.743,16.035,35.743,35.745C135.743,119.71,119.709,135.743,100,135.743z M100,71.485    c-15.722,0-28.514,12.792-28.514,28.516c0,15.722,12.792,28.514,28.514,28.514c15.723,0,28.514-12.792,28.514-28.514    C128.514,84.277,115.723,71.485,100,71.485z"/><rect x="95.984" y="96.387" fill="#eab308" width="8.032" height="7.228"/></g><g><rect x="71.36" y="139.886" transform="matrix(0.7071 0.7071 -0.7071 0.7071 125.4176 -10.1609)" fill="#eab308" width="7.229" height="12.852"/><path fill="#eab308" d="M62.478,175.276l-16.469-16.469l18.742-18.744l16.469,16.473L62.478,175.276z M56.231,158.808l6.247,6.246    l8.52-8.518l-6.247-6.25L56.231,158.808z"/><path fill="#eab308" d="M62.478,175.276l-16.469-16.469l18.742-18.744l16.469,16.473L62.478,175.276z M56.231,158.808l6.247,6.246    l8.52-8.518l-6.247-6.25L56.231,158.808z"/><polygon fill="#eab308" points="35.577,190.819 3.614,190.819 3.614,183.591 32.583,183.591 54.244,161.929 59.354,167.04   "/></g></g></svg>